<?xml version="1.0" encoding="iso-8859-1"?>
<!-- Generator: Adobe Illustrator 19.0.0, SVG Export Plug-In . SVG Version: 6.00 Build 0)  -->
<svg version="1.1" id="Layer_1" xmlns="http://www.w3.org/2000/svg" xmlns:xlink="http://www.w3.org/1999/xlink" x="0px" y="0px"
	 viewBox="0 0 512 512" style="enable-background:new 0 0 512 512;" xml:space="preserve">
<circle style="fill:#FFEDB5;" cx="256" cy="256" r="256"/>
<path style="fill:#FFC61B;" d="M509.614,221.039l-98.994-99.114l-259.779,48.742L92.229,178l-5.253,218.364L195.37,504.758
	C214.809,509.48,235.108,512,256,512c141.384,0,256-114.616,256-256C512,244.14,511.176,232.472,509.614,221.039z"/>
<g>
	<path style="fill:#366695;" d="M189.799,369.778h201.357c15.089,0,27.32-12.233,27.32-27.32V141.098
		c0-15.089-12.233-27.32-27.32-27.32H189.799c-15.089,0-27.32,12.233-27.32,27.32v201.357
		C162.478,357.545,174.711,369.778,189.799,369.778z"/>
	<path style="fill:#366695;" d="M189.799,113.778c-15.089,0-27.32,12.233-27.32,27.32v201.357c0,15.089,12.231,27.32,27.32,27.32
		h89.762V113.778H189.799z"/>
</g>
<path style="fill:#285377;" d="M391.158,113.778H279.561v256h111.597c15.089,0,27.32-12.233,27.32-27.32V141.098
	C418.478,126.011,406.247,113.778,391.158,113.778z"/>
<g>
	<rect x="329.697" y="266.343" style="fill:#71E2EF;" width="28.444" height="28.444"/>
	<rect x="290.685" y="266.343" style="fill:#71E2EF;" width="28.444" height="28.444"/>
	<rect x="369.123" y="266.774" style="fill:#71E2EF;" width="27.582" height="27.582"/>
	<rect x="329.697" y="225.401" style="fill:#71E2EF;" width="28.444" height="28.444"/>
	<rect x="290.685" y="225.401" style="fill:#71E2EF;" width="28.444" height="28.444"/>
	<rect x="290.685" y="142.222" style="fill:#71E2EF;" width="107.52" height="56.889"/>
	<rect x="369.123" y="225.832" style="fill:#71E2EF;" width="27.582" height="27.582"/>
	<rect x="329.697" y="306.424" style="fill:#71E2EF;" width="28.444" height="28.444"/>
	<rect x="290.685" y="306.424" style="fill:#71E2EF;" width="28.444" height="28.444"/>
	<rect x="369.123" y="306.855" style="fill:#71E2EF;" width="27.582" height="27.582"/>
</g>
<g>
	<path style="fill:#121149;" d="M162.551,180.148h-46.69c-11.604,0-21.045,7.92-21.045,17.655v173.284
		c0,9.735,9.442,17.655,21.045,17.655h81.167c11.605,0,21.047-7.92,21.047-17.655v-74c0-5.236,4.246-9.481,9.481-9.481
		c5.236,0,9.481,4.246,9.481,9.481v74c0,20.192-17.948,36.617-40.01,36.617H115.86c-22.061,0-40.008-16.425-40.008-36.617V197.803
		c0-20.192,17.948-36.617,40.008-36.617h46.69V180.148z"/>
	<path style="fill:#121149;" d="M251.189,318.061h-48.557c-10.156,0-18.389-8.233-18.389-18.389V108.894
		c0-10.156,8.233-18.389,18.389-18.389h48.557c10.156,0,18.389,8.233,18.389,18.389v190.779
		C269.576,309.827,261.342,318.061,251.189,318.061z"/>
</g>
</svg>
